/*
 歌曲
 */
#ifndef music_h
#define music_h
# if ARDUINO >= 100
  #include "Arduino.h"
# else
  # include "WProgram.h"
# endif

#define BUZZER_PIN 13

//葫芦娃歌曲
//#define NOTE_D0 -1
//#define NOTE_D1 294
//#define NOTE_D2 330
//#define NOTE_D3 350
//#define NOTE_D4 393
//#define NOTE_D5 441
//#define NOTE_D6 495
//#define NOTE_D7 556
//
//#define NOTE_DL1 147
//#define NOTE_DL2 165
//#define NOTE_DL3 175
//#define NOTE_DL4 196
//#define NOTE_DL5 221
//#define NOTE_DL6 248
//#define NOTE_DL7 278
//
//#define NOTE_DH1 589
//#define NOTE_DH2 661
//#define NOTE_DH3 700
//#define NOTE_DH4 786
//#define NOTE_DH5 882
//#define NOTE_DH6 990
//#define NOTE_DH7 112


//#define WHOLE 1
//#define HALF 0.5
//#define QUARTER 0.25
//#define SIXTEENTH 0.625
//const int Calabashtune[]=
//{
//  NOTE_DH1,NOTE_D6,NOTE_D5,NOTE_D6,NOTE_D0,
//  NOTE_DH1,NOTE_D6,NOTE_D5,NOTE_DH1,NOTE_D6,NOTE_D0,NOTE_D6,
//  NOTE_D6,NOTE_D6,NOTE_D5,NOTE_D6,NOTE_D0,NOTE_D6,
//  NOTE_DH1,NOTE_D6,NOTE_D5,NOTE_DH1,NOTE_D6,NOTE_D0,
//  
//  NOTE_D1,NOTE_D1,NOTE_D3,
//  NOTE_D1,NOTE_D1,NOTE_D3,NOTE_D0,
//  NOTE_D6,NOTE_D6,NOTE_D6,NOTE_D5,NOTE_D6,
//  NOTE_D5,NOTE_D1,NOTE_D3,NOTE_D0,
//  NOTE_DH1,NOTE_D6,NOTE_D6,NOTE_D5,NOTE_D6,
//  NOTE_D5,NOTE_D1,NOTE_D2,NOTE_D0,
//  NOTE_D7,NOTE_D7,NOTE_D5,NOTE_D3,
//  NOTE_D5,
//  NOTE_DH1,NOTE_D0,NOTE_D6,NOTE_D6,NOTE_D5,NOTE_D5,NOTE_D6,NOTE_D6,
//  NOTE_D0,NOTE_D5,NOTE_D1,NOTE_D3,NOTE_D0,
//  NOTE_DH1,NOTE_D0,NOTE_D6,NOTE_D6,NOTE_D5,NOTE_D5,NOTE_D6,NOTE_D6,
//  NOTE_D0,NOTE_D5,NOTE_D1,NOTE_D2,NOTE_D0,
//  NOTE_D3,NOTE_D3,NOTE_D1,NOTE_DL6,
//  NOTE_D1,
//  NOTE_D3,NOTE_D5,NOTE_D6,NOTE_D6,
//  NOTE_D3,NOTE_D5,NOTE_D6,NOTE_D6,
//  NOTE_DH1,NOTE_D0,NOTE_D7,NOTE_D5,
//  NOTE_D6
//  };
//  const float Calabashduration[]=
//{
//  1,1,0.5,0.5,1,
//  0.5,0.5,0.5,0.5,1,0.5,0.5,
//  0.5,1,0.5,1,0.5,0.5,
//  0.5,0.5,0.5,0.5,1,1,
//  
//  1,1,1+1,
//  0.5,1,1+0.5,1,
//  1,1,0.5,0.5,1,
//  0.5,1,1+0.5,1,
//  0.5,0.5,0.5,0.5,1+1,
//  0.5,1,1+0.5,1,
//  1+1,0.5,0.5,1,
//  1+1+1+1,
//  0.5,0.5,0.5+0.25,0.25,0.5+0.25,0.25,0.5+0.25,0.25,
//  0.5,1,0.5,1,1,
//  0.5,0.5,0.5+0.25,0.25,0.5+0.25,0.25,0.5+0.25,0.25,
//  0.5,1,0.5,1,1,
//  1+1,0.5,0.5,1,
//  1+1+1+1,
//  0.5,1,0.5,1+1,
//  0.5,1,0.5,1+1,
//  1+1,0.5,0.5,1,
//  1+1+1+1
//};
//const char Calabashaction[][6]={{0,0,0,0,0,0},
//                                {0,0,0,0,-30,-45},
//                                {0,0,0,30,-30,0},
//                                {0,0,0,0,-30,0},
//                                {0,0,0,0,40,-40},
//                                {0,0,30,0,0,20},
//                                {0,0,0,0,0,20},
//                                {0,0,0,0,0,0},{0,0,0,0,0,0},{0,0,0,0,0,0},{0,0,0,0,0,0},{0,0,0,0,0,0},{0,0,0,0,0,0},{0,0,0,0,0,0},{0,0,0,0,0,0},{0,0,0,0,0,0},{0,0,0,0,0,0},
//                                {0,0,0,0,0,0},{0,0,0,0,0,0},{0,0,0,0,0,0},{0,0,0,0,0,0},{0,0,0,0,0,0},{0,0,0,0,0,0},{20,0,0,0,0,0},{0,0,0,0,0,0},{0,0,0,0,0,0},{0,0,0,0,0,0},
//                                {0,0,0,0,0,0},{0,0,0,0,0,0},{0,0,0,0,0,0},{0,0,0,0,0,0},{0,0,0,0,0,0},{0,0,0,0,0,0},{0,0,0,0,0,0},{0,0,0,0,0,0},{0,0,0,0,0,0},{0,0,0,0,0,0},
//                                {0,0,0,0,0,0},{0,0,0,0,0,0},{0,0,0,0,0,0},{0,0,0,0,0,0},{0,0,0,0,0,0},{0,0,0,0,0,0},{0,0,0,0,0,0},{0,0,0,0,0,0},{0,0,0,0,0,0},{0,0,0,0,0,0},
//                                {0,0,0,0,0,0},{0,0,0,0,0,0},{0,0,0,0,0,0},{0,0,0,0,0,0},{0,0,0,0,0,0},{0,0,0,0,0,0},{0,0,0,0,0,0},{0,0,0,0,0,0},{0,0,0,0,0,0},{0,0,0,0,0,0},
//                                {0,0,0,0,0,0},{0,0,0,0,0,0},{0,0,0,0,0,0},{0,0,0,0,0,0},{0,0,0,0,0,0},{0,0,0,0,0,0},{0,0,0,0,0,0},{0,0,0,0,0,0},{0,0,0,0,0,0},{0,0,0,0,0,0},
//                                {0,0,0,0,0,0},{0,0,0,0,0,0},{0,0,0,0,0,0},{0,0,0,0,0,0},{0,0,0,0,0,0},{0,0,0,0,0,0},{0,0,0,0,0,0},{0,0,0,0,0,0},{0,0,0,0,0,0},{0,0,0,0,0,0},
//                                {0,0,0,0,0,0},{0,0,0,0,0,0},{0,0,0,0,0,0},{0,0,0,0,0,0},{0,0,0,0,0,0},{0,0,0,0,0,0},{0,0,0,0,0,0},{0,0,0,0,0,0},{0,0,0,0,0,0},{0,0,0,0,0,0},
//                                {0,0,0,0,0,0},{0,0,0,0,0,0},{0,0,0,0,0,0},{0,0,0,0,0,0},{0,0,0,0,0,0},{0,0,0,0,0,0},{0,0,0,0,0,0},{0,0,0,0,0,0},{0,0,0,0,0,0},{0,0,0,0,0,0},
//                                {0,0,0,0,0,0},{0,0,0,0,0,0},{0,0,0,0,0,0},{0,0,0,0,0,0},{0,0,0,0,0,0},{0,0,0,0,0,0},{0,0,0,0,0,0},{0,0,0,0,0,0},{0,0,0,0,0,0},{0,0,0,0,0,0},                                
//                                };

//极乐净土歌曲
#define NOTE_A0 -1
#define NOTE_A1 441
#define NOTE_A2 495
#define NOTE_A3 556
#define NOTE_A4 589
#define NOTE_A5 661
#define NOTE_A6 742
#define NOTE_A7 833

#define NOTE_AL1 221
#define NOTE_AL2 248
#define NOTE_AL3 278
#define NOTE_AL4 294
#define NOTE_AL5 330
#define NOTE_AL6 371
#define NOTE_AL7 416

#define NOTE_AH1 882
#define NOTE_AH2 990
#define NOTE_AH3 1112
#define NOTE_AH4 1178
#define NOTE_AH5 1322
#define NOTE_AH6 1484
#define NOTE_AH7 1665
//极乐净土音调
const short int elysiumtune[]=
{
  NOTE_A0,NOTE_A0,NOTE_A6,NOTE_A6,NOTE_A5,NOTE_A5,NOTE_A5,NOTE_A6,
  NOTE_A5,NOTE_A3,NOTE_A3,NOTE_A5,NOTE_A3,NOTE_A3,NOTE_A0,
  NOTE_A0,NOTE_A0,NOTE_A6,NOTE_A6,NOTE_A5,NOTE_A6,NOTE_A7,
  NOTE_AH1,NOTE_A7,NOTE_A6,NOTE_A7,NOTE_A6,NOTE_A5,
  
  NOTE_A0,NOTE_A0,NOTE_A6,NOTE_A6,NOTE_A5,NOTE_A5,NOTE_A6,NOTE_A5,
  NOTE_A5,NOTE_A3,NOTE_A3,NOTE_A5,NOTE_A3,NOTE_A3,NOTE_A0,NOTE_A5,
  NOTE_A5,NOTE_A6,NOTE_A0,NOTE_A5,NOTE_A5,NOTE_A6,NOTE_A0,NOTE_A6,NOTE_A7,
  NOTE_AH1,NOTE_AH2,NOTE_A6,NOTE_A3,NOTE_A3,NOTE_A5,
  
  NOTE_A5,NOTE_A6,NOTE_A0,NOTE_AH3,NOTE_AH2,NOTE_A0,NOTE_A6,
  NOTE_A0,NOTE_A6,NOTE_A6,NOTE_AH3,NOTE_AH2,NOTE_A0,
  NOTE_A0,NOTE_AH2,NOTE_AH2,NOTE_AH1,NOTE_AH2,NOTE_AH1,NOTE_A6,NOTE_A6,NOTE_A5,
  NOTE_A5,NOTE_A5,NOTE_A5,NOTE_A6,NOTE_A6,NOTE_A3,NOTE_A3,NOTE_A5,
  
  NOTE_A5,NOTE_A6,NOTE_A0,NOTE_AH3,NOTE_AH2,NOTE_A0,NOTE_A6,
  NOTE_A0,NOTE_A6,NOTE_A6,NOTE_AH3,NOTE_AH2,NOTE_A0,
  NOTE_A0,NOTE_AH2,NOTE_AH2,NOTE_AH1,NOTE_AH2,NOTE_AH1,NOTE_A6,NOTE_A6,NOTE_A3,NOTE_A5,
  NOTE_A5,NOTE_A6,NOTE_A6,NOTE_A5,NOTE_A6,NOTE_A0,NOTE_A3,NOTE_A5,
  
  NOTE_A6,NOTE_A6,NOTE_A6,NOTE_AH3,NOTE_AH3,NOTE_A0,NOTE_A7,NOTE_AH1,
  NOTE_AH2,NOTE_AH1,NOTE_AH2,NOTE_AH2,NOTE_AH3,NOTE_A6,NOTE_A0,NOTE_A5,NOTE_A5,
  NOTE_A6,NOTE_AH3,NOTE_AH3,NOTE_AH2,NOTE_AH1,NOTE_A6,NOTE_A5,
  NOTE_A6,NOTE_A6,NOTE_A6,NOTE_AH1,NOTE_AH2,NOTE_A0,
  
//  NOTE_AH6,NOTE_AH6,NOTE_AH6,NOTE_AH6,NOTE_A5,NOTE_A5,NOTE_A6,NOTE_AH3,NOTE_A0,NOTE_AH1,
//  NOTE_AH2,NOTE_AH1,NOTE_AH2,NOTE_AH2,NOTE_AH3,NOTE_AH3,NOTE_A0,NOTE_A5,
//  NOTE_A6,NOTE_AH1,NOTE_A0,NOTE_A5,NOTE_A6,NOTE_AH3,NOTE_A0,NOTE_AH3,NOTE_AH2,
//  NOTE_AH1,NOTE_A7,NOTE_A6,NOTE_A5,NOTE_A5,NOTE_A6,NOTE_A0
  };
  //极乐净土节拍
  const float elysiumduration[]=
{
  1,0.5,0.5,0.5,0.25,0.25,0.5,0.5,
  0.5,0.5,0.5,0.25,0.25,1,1,
  1,0.5,0.5,0.5,0.5,0.5,0.5,
  1,1,0.5,0.25,0.25,1,
  
  1,0.5,0.5,0.5,0.5,0.5,0.25,0.25,
  0.5,0.5,0.5,0.25,0.25,1,0.5,0.5,
  0.5,0.5,0.5,0.5,0.5,0.5,0.5,0.25,0.25,
  1,1,0.5,0.5,0.5,0.5,
  
  0.5,0.5,0.5,0.5,1,0.5,0.5,
  0.5,0.5,0.5,0.5,1,1,
  0.5,0.5,0.5,0.5,0.5,0.25,0.25,0.5,0.5,
  0.5,0.5,0.5,0.5,0.5,0.5,0.5,0.5,
  
//  0.5,0.5,0.5,0.5,1,0.5,0.5,
//  0.5,0.5,0.5,0.5,1,1,
//  0.5,0.5,0.5,0.5,0.5,0.25,0.25,0.25,0.25,0.5,
//  0.5,0.5,0.5,0.5,1,0.5,0.25,0.25,
  
//  0.5,0.5,0.5,0.5,1,0.5,0.25,0.25,
//  0.5,0.25,0.25,0.5,0.5,1,0.5,0.25,0.25,
//  1,0.5+0.5,0.25,0.5,0.5,0.5,0.5,
//  0.5+0.5,0.25,0.5,0.5,1,1,
  
//  0.5,0.25,0.25,0.5,0.25,0.25,0.5,0.5,0.5,0.5,0.5,
//  0.5,0.25,0.25,0.5,0.5,1,0.5,0.5,
//  0.5,0.5,0.5,0.5,0.5,0.5,0.5,0.25,0.25,
//  0.5,0.5,0.5,0.5,0.5,1,0.5,
};
//左手 右手 左脚 右脚 左脚掌 右脚掌，极乐尽土动作
const char elysiumaction[][6]={{0,0,0,0,0,0},{70,-50,0,0,-10,-40},{0,0,20,20,-10,-40},{90,-50,20,20,40,10},{0,0,-20,-20,40,10},{0,0,-20,-20,-10,-40},{0,0,20,20,-10,-40},{0,0,20,20,40,10},{0,0,-20,-20,40,10},{0,0,0,0,0,0},
                                {90,-90,0,0,-10,-40},{0,0,0,-20,-10,-40},{90,-90,0,20,-10,-40},{0,0,0,-20,-10,-40},{90,-90,0,20,-10,-40},{0,0,0,-20,-10,-40},{0,0,0,0,0,0},
                                {90,-90,-15,-15,0,0},{90,-90,15,15,0,0},{90,-90,-15,-15,0,0},{90,-90,15,15,0,0},{90,-90,-15,-15,0,0},{90,-90,15,15,0,0},{90,-90,-15,-15,0,0},{0,0,0,0,0,0},
                                {0,0,0,0,40,20},{0,0,0,0,0,20},{30,-30,0,0,0,20},{20,-20,30,0,0,20},{20,-20,-30,0,0,20},{20,-20,30,0,0,20},{20,-20,-30,0,0,20},{20,-20,30,0,0,20},{20,-20,-30,0,0,20},{0,0,0,0,0,0},
                                {70,-50,0,0,-10,-40},{0,0,-20,-20,-10,-40},{90,-50,-20,-20,40,10},{0,0,20,20,40,10},{0,0,-20,-20,-10,-40},{0,0,0,0,0,0},
                                {120,-120,0,0,0,30},{120,-120,0,30,0,30},{120,-120,0,0,0,30},{0,0,0,0,0,0},{120,-120,0,0,-30,0},{120,-120,30,0,-30,0},{120,-120,0,0,-30,0},{0,0,0,0,0,0},
//                                {100,-100,0,0,-90,90},{0,0,0,0,0,0},{100,-100,0,0,-90,90},{0,0,0,0,0,0},
//                                {120,-120,0,0,0,30},{120,-120,0,30,0,30},{120,-120,0,0,0,30},{0,0,0,0,0,0},{120,-120,0,0,-30,0},{120,-120,30,0,-30,0},{120,-120,0,0,-30,0},{0,0,0,0,0,0},
//                                {90,-90,0,0,-10,-40},{90,-90,20,0,0,0},{90,-90,20,0,-10,-40},{90,-90,40,0,0,0},{90,-90,40,0,-10,-40},{90,-90,20,0,0,0},{90,-90,20,0,-10,-40},{0,0,0,0,0,0},
//                                {90,-90,0,0,-10,-40},{90,-90,-20,0,0,0},{90,-90,-20,0,-10,-40},{90,-90,-40,0,0,0},{90,-90,-40,0,-10,-40},{90,-90,-20,0,0,0},{90,-90,-20,0,-10,-40},{0,0,0,0,0,0}                          
                                };


const int elysiumjiepai[]={0,1,3,5,7,9,10,11,12,
                             14,15,17,19,21,22,23,25,
                             28,33,35,37,38,39,40,41,
                             42,44,46,48,50,52,54,55,56,57,
                             58,60,62,65,67,69,
                             71,73,75,78,80,82,84,86,
//                             87,93,94,100,
//                             101,103,105,107,109,111,113,115,   
//                             118,120,122,124,126,128,130,132,  
//                             134,136,138,140,142,144,146,148,                      
                             };
//const char Calabashaction0[]={0,0,0,0,0,0};
//const char Calabashaction1[]={0,0,0,0,-30,-45};
//const char Calabashaction2[]={0,0,0,30,-30,0};
//const char Calabashaction3[]={0,0,0,0,-30,0};
//const char Calabashaction4[]={0,0,0,0,40,-40};
//const char Calabashaction5[]={0,0,30,0,0,20};
//const char Calabashaction6[]={0,0,0,0,0,20};


 class music{
  public:
      
  private:
  
  };
  # endif
